<svg width="367" height="335" viewBox="0 0 367 335" fill="none" xmlns="http://www.w3.org/2000/svg">
<path d="M90.7885 121.411L109.043 137.089C114.548 141.779 120.222 146.643 127.21 149.269C134.197 151.896 142.895 151.896 148.672 147.447C153.891 152.024 158.651 157.017 162.897 162.368C154.896 170.488 141.346 172.652 129.771 169.872C118.196 167.091 108.353 160.13 100.007 152.271C91.6619 144.412 84.4687 135.628 76.013 127.89C68.5262 121.035 59.7916 114.711 55.828 105.726C51.6149 96.1584 56.2097 69.6599 70.8677 84.0247C77.5618 90.5773 75.4772 96.1249 77.2902 103.984C78.9417 111.106 85.2101 116.62 90.7885 121.411Z" fill="#FD04E4"/>
<path d="M200.808 219.566L219.062 235.244C224.567 239.967 230.241 244.791 237.229 247.424C244.216 250.057 252.907 250.051 258.691 245.602C263.912 250.175 268.672 255.166 272.916 260.516C264.915 268.67 251.366 270.807 239.79 268C228.215 265.193 218.372 258.231 210.019 250.399C201.666 242.567 194.51 233.783 186.032 226.045C178.538 219.19 169.811 212.866 165.847 203.881C161.627 194.313 166.222 167.815 180.887 182.18C187.581 188.732 185.496 194.28 187.309 202.139C188.954 209.261 195.244 214.775 200.808 219.566Z" fill="#FD04E4"/>
<path d="M247.505 155.728C240.481 149.336 231.373 145.198 221.551 143.938C211.729 142.678 201.724 144.363 193.042 148.74L189.6 145.598C194.396 137.671 196.24 128.536 194.853 119.569C193.467 110.602 188.926 102.29 181.915 95.8837L139.343 57.0237C135.098 53.1469 130.058 50.0714 124.511 47.9732C118.964 45.8749 113.018 44.7949 107.014 44.7949C101.009 44.7949 95.0632 45.8749 89.5161 47.9732C83.9689 50.0714 78.9291 53.1469 74.6845 57.0237L63.6745 67.0737C55.1023 74.9012 50.2867 85.516 50.2867 96.5839C50.2867 107.652 55.1023 118.266 63.6745 126.094L106.246 164.954C113.782 171.814 123.7 176.063 134.296 176.971C144.891 177.88 155.503 175.391 164.306 169.932L166.361 171.808C160.37 179.842 157.638 189.532 158.635 199.208C159.632 208.883 164.296 217.938 171.822 224.812L214.394 263.672C222.969 271.497 234.598 275.892 246.723 275.892C258.848 275.892 270.477 271.497 279.052 263.672L290.062 253.622C298.622 245.788 303.429 235.176 303.429 224.112C303.429 213.048 298.622 202.435 290.062 194.602L247.505 155.728ZM221.668 257.012L179.096 218.152C173.501 213.04 169.939 206.366 168.979 199.193C168.019 192.02 169.714 184.76 173.797 178.568L182.443 186.461C180.17 190.583 179.377 195.253 180.179 199.809C180.98 204.366 183.334 208.575 186.906 211.841L226.806 248.275C231.31 252.386 237.418 254.695 243.787 254.695C250.156 254.695 256.264 252.386 260.768 248.275L273.202 236.919C275.434 234.884 277.204 232.468 278.412 229.808C279.62 227.148 280.241 224.297 280.241 221.418C280.241 218.539 279.62 215.688 278.412 213.029C277.204 210.369 275.434 207.953 273.202 205.918L233.324 169.51C230.292 166.744 226.503 164.769 222.352 163.791C218.201 162.813 213.839 162.868 209.718 163.949L200.712 155.708C207.266 153.041 214.55 152.25 221.606 153.438C228.662 154.625 235.158 157.736 240.238 162.361L282.81 201.221C289.444 207.295 293.17 215.522 293.17 224.098C293.17 232.675 289.444 240.902 282.81 246.975L271.8 257.025C265.152 263.091 256.137 266.498 246.738 266.498C237.338 266.498 228.323 263.091 221.675 257.025L221.668 257.012ZM113.535 158.301L70.9631 119.441C64.3183 113.372 60.5855 105.144 60.5855 96.5638C60.5855 87.9838 64.3183 79.755 70.9631 73.6866L81.9731 63.6366C85.2653 60.6295 89.1746 58.2443 93.4774 56.6174C97.7803 54.9904 102.392 54.1537 107.05 54.1549C111.707 54.1562 116.318 54.9954 120.62 56.6246C124.922 58.2539 128.83 60.6412 132.12 63.65L174.692 102.51C179.765 107.146 183.179 113.078 184.481 119.522C185.784 125.966 184.915 132.619 181.988 138.603L171.22 128.774C171.836 126.813 172.149 124.784 172.152 122.744C172.163 119.855 171.545 116.993 170.333 114.324C169.12 111.656 167.339 109.234 165.091 107.2L125.184 70.7788C120.677 66.6731 114.57 64.3672 108.203 64.3672C101.835 64.3672 95.7282 66.6731 91.2215 70.7788L78.7876 82.1286C76.556 84.1634 74.7857 86.5796 73.5779 89.2393C72.37 91.899 71.7483 94.7499 71.7483 97.6291C71.7483 100.508 72.37 103.359 73.5779 106.019C74.7857 108.678 76.556 111.095 78.7876 113.13L118.688 149.557C122.268 152.812 126.878 154.956 131.867 155.686C136.856 156.416 141.97 155.695 146.484 153.624L156.893 163.125C150.109 166.846 142.159 168.391 134.304 167.516C126.448 166.641 119.139 163.395 113.535 158.294V158.301ZM139.225 146.154C136.896 146.73 134.441 146.735 132.109 146.169C129.777 145.603 127.649 144.486 125.94 142.931L86.0542 106.53C84.7769 105.366 83.7637 103.984 83.0723 102.463C82.3809 100.941 82.0251 99.3098 82.0251 97.6626C82.0251 96.0153 82.3809 94.3842 83.0723 92.8626C83.7637 91.341 84.7769 89.9588 86.0542 88.7951L98.4881 77.4453C101.065 75.094 104.559 73.7731 108.203 73.7731C111.846 73.7731 115.34 75.094 117.917 77.4453L157.81 113.84C160.267 116.076 161.697 119.083 161.81 122.248C158.277 120.996 154.406 120.774 150.729 121.611C147.051 122.448 143.748 124.304 141.273 126.924C138.798 129.544 137.272 132.799 136.906 136.242C136.539 139.685 137.349 143.148 139.225 146.154ZM149.501 143.105C148.75 142.421 148.153 141.608 147.746 140.713C147.339 139.818 147.129 138.859 147.128 137.89C147.127 136.921 147.335 135.961 147.74 135.065C148.146 134.17 148.74 133.356 149.49 132.67C150.24 131.984 151.131 131.44 152.111 131.068C153.091 130.697 154.142 130.505 155.204 130.504C157.348 130.502 159.405 131.278 160.922 132.66L210.027 177.483C210.778 178.169 211.373 178.983 211.779 179.879C212.186 180.775 212.394 181.735 212.394 182.705C212.394 183.674 212.184 184.634 211.777 185.53C211.371 186.426 210.774 187.24 210.023 187.925C209.272 188.61 208.38 189.154 207.398 189.525C206.417 189.896 205.365 190.086 204.303 190.086C203.24 190.086 202.189 189.894 201.207 189.523C200.226 189.152 199.335 188.607 198.584 187.922L149.501 143.105ZM190.473 193.771L191.339 194.555C194.606 197.596 199.018 199.387 203.68 199.563C208.342 199.74 212.902 198.289 216.434 195.506C219.965 192.723 222.203 188.816 222.691 184.581C223.179 180.345 221.882 176.099 219.062 172.706C221.719 173.188 224.158 174.38 226.072 176.13L265.98 212.551C267.256 213.715 268.268 215.097 268.959 216.619C269.65 218.14 270.006 219.771 270.006 221.418C270.006 223.065 269.65 224.696 268.959 226.218C268.268 227.739 267.256 229.122 265.98 230.286L253.546 241.676C250.969 244.027 247.475 245.348 243.831 245.348C240.188 245.348 236.693 244.027 234.117 241.676L194.209 205.248C192.93 204.086 191.916 202.705 191.225 201.183C190.535 199.662 190.182 198.031 190.187 196.384C190.178 195.506 190.269 194.631 190.458 193.771H190.473Z" fill="#251AC7"/>
</svg>
